<svg width="10" height="14" viewBox="0 0 10 14" fill="none" xmlns="http://www.w3.org/2000/svg">
<path d="M4.29535 8.61537C5.82476 8.61537 7.06458 7.37554 7.06458 5.84613C7.06458 4.31673 5.82476 3.0769 4.29535 3.0769C2.76595 3.0769 1.52612 4.31673 1.52612 5.84613C1.52612 7.37554 2.76595 8.61537 4.29535 8.61537Z" stroke="#B9C0FF" stroke-linecap="round" stroke-linejoin="round"/>
<path d="M4.29541 10.6923V13" stroke="#B9C0FF" stroke-linecap="round" stroke-linejoin="round"/>
<path d="M2.91077 13H5.68" stroke="#B9C0FF" stroke-linecap="round" stroke-linejoin="round"/>
<path d="M4.29538 1C5.08456 1.0001 5.86177 1.19293 6.55947 1.56174C7.25718 1.93054 7.85425 2.46415 8.29882 3.1162C8.74338 3.76824 9.02198 4.51899 9.11039 5.3032C9.19881 6.08741 9.09437 6.88135 8.80616 7.61601C8.51794 8.35068 8.05467 9.00384 7.45661 9.51874C6.85854 10.0336 6.14378 10.3947 5.37443 10.5705C4.60509 10.7463 3.80445 10.7316 3.04209 10.5276C2.27974 10.3236 1.57873 9.93654 1 9.4" stroke="#B9C0FF" stroke-linecap="round" stroke-linejoin="round"/>
</svg>
