<svg width="102" height="16" viewBox="0 0 102 16" fill="none" xmlns="http://www.w3.org/2000/svg">
<path d="M11.6605 13V4.27273H15.2656C15.919 4.27273 16.483 4.39062 16.9574 4.62642C17.4347 4.85937 17.8026 5.1946 18.0611 5.6321C18.3196 6.06676 18.4489 6.58239 18.4489 7.17898C18.4489 7.78409 18.3168 8.2983 18.0526 8.72159C17.7884 9.14205 17.4134 9.46307 16.9276 9.68466C16.4418 9.90341 15.8665 10.0128 15.2017 10.0128H12.9219V8.35085H14.8097C15.1278 8.35085 15.3935 8.30966 15.6065 8.22727C15.8224 8.14205 15.9858 8.0142 16.0966 7.84375C16.2074 7.67045 16.2628 7.44886 16.2628 7.17898C16.2628 6.90909 16.2074 6.68608 16.0966 6.50994C15.9858 6.33097 15.8224 6.19744 15.6065 6.10938C15.3906 6.01847 15.125 5.97301 14.8097 5.97301H13.7699V13H11.6605ZM16.5739 9.01136L18.7472 13H16.446L14.3153 9.01136H16.5739ZM21.451 13.1108C21.0334 13.1108 20.6626 13.0412 20.3388 12.902C20.0178 12.7599 19.7635 12.5469 19.576 12.2628C19.3913 11.9759 19.299 11.6165 19.299 11.1847C19.299 10.821 19.3629 10.5142 19.4908 10.2642C19.6186 10.0142 19.7947 9.81108 20.0192 9.65483C20.2436 9.49858 20.5021 9.38068 20.7947 9.30114C21.0874 9.21875 21.3999 9.16335 21.7322 9.13494C22.1044 9.10085 22.4041 9.06534 22.6314 9.02841C22.8587 8.98864 23.0234 8.93324 23.1257 8.86222C23.2308 8.78835 23.2834 8.68466 23.2834 8.55114V8.52983C23.2834 8.31108 23.2081 8.14205 23.0575 8.02273C22.907 7.90341 22.7038 7.84375 22.4482 7.84375C22.1726 7.84375 21.951 7.90341 21.7834 8.02273C21.6158 8.14205 21.5092 8.30682 21.4638 8.51705L19.5419 8.44886C19.5987 8.05114 19.745 7.69602 19.9808 7.38352C20.2195 7.06818 20.5462 6.82102 20.9609 6.64205C21.3786 6.46023 21.88 6.36932 22.4652 6.36932C22.8828 6.36932 23.2678 6.41903 23.62 6.51847C23.9723 6.61506 24.2791 6.7571 24.5405 6.9446C24.8018 7.12926 25.0036 7.35653 25.1456 7.62642C25.2905 7.89631 25.3629 8.20455 25.3629 8.55114V13H23.4027V12.0881H23.3516C23.2351 12.3097 23.0859 12.4972 22.9041 12.6506C22.7251 12.804 22.5135 12.919 22.2692 12.9957C22.0277 13.0724 21.755 13.1108 21.451 13.1108ZM22.0945 11.7472C22.3189 11.7472 22.5206 11.7017 22.6996 11.6108C22.8814 11.5199 23.0263 11.3949 23.1342 11.2358C23.2422 11.0739 23.2962 10.8864 23.2962 10.6733V10.0511C23.2365 10.0824 23.1641 10.1108 23.0788 10.1364C22.9964 10.1619 22.9055 10.1861 22.8061 10.2088C22.7067 10.2315 22.6044 10.2514 22.4993 10.2685C22.3942 10.2855 22.2933 10.3011 22.1967 10.3153C22.0007 10.3466 21.8331 10.3949 21.6939 10.4602C21.5575 10.5256 21.4524 10.6108 21.3786 10.7159C21.3075 10.8182 21.272 10.9403 21.272 11.0824C21.272 11.2983 21.3487 11.4631 21.5021 11.5767C21.6584 11.6903 21.8558 11.7472 22.0945 11.7472ZM28.7209 9.26705V13H26.6371V6.45455H28.6186V7.65625H28.6911C28.8359 7.25568 29.0831 6.94176 29.4325 6.71449C29.782 6.48438 30.1982 6.36932 30.6811 6.36932C31.1413 6.36932 31.5405 6.47301 31.8786 6.6804C32.2195 6.88494 32.4837 7.17187 32.6712 7.54119C32.8615 7.90767 32.9553 8.33665 32.9524 8.82812V13H30.8686V9.23722C30.8714 8.87358 30.7791 8.58949 30.5916 8.38494C30.407 8.1804 30.1499 8.07812 29.8203 8.07812C29.6016 8.07812 29.4084 8.12642 29.2408 8.22301C29.076 8.31676 28.9482 8.4517 28.8572 8.62784C28.7692 8.80398 28.7237 9.01705 28.7209 9.26705ZM36.6332 13.0938C36.1502 13.0938 35.7113 12.9688 35.3164 12.7188C34.9215 12.4688 34.6062 12.0938 34.3704 11.5938C34.1346 11.0938 34.0167 10.473 34.0167 9.73153C34.0167 8.96165 34.1388 8.32812 34.3832 7.83097C34.6275 7.33381 34.9471 6.96591 35.342 6.72727C35.7397 6.48864 36.1673 6.36932 36.6246 6.36932C36.9684 6.36932 37.2624 6.42898 37.5067 6.5483C37.7511 6.66477 37.9528 6.81534 38.1119 7C38.271 7.18466 38.3917 7.37642 38.4741 7.57528H38.5167V4.27273H40.6005V13H38.538V11.9389H38.4741C38.386 12.1406 38.261 12.3295 38.0991 12.5057C37.9371 12.6818 37.734 12.8239 37.4897 12.9318C37.2482 13.0398 36.9627 13.0938 36.6332 13.0938ZM37.3576 11.4702C37.6104 11.4702 37.8263 11.3991 38.0053 11.2571C38.1843 11.1122 38.3221 10.9091 38.4187 10.6477C38.5153 10.3864 38.5636 10.0795 38.5636 9.72727C38.5636 9.36932 38.5153 9.06108 38.4187 8.80256C38.3249 8.54403 38.1871 8.34517 38.0053 8.20597C37.8263 8.06676 37.6104 7.99716 37.3576 7.99716C37.0991 7.99716 36.8803 8.06818 36.7013 8.21023C36.5224 8.35227 36.386 8.55256 36.2923 8.81108C36.2013 9.0696 36.1559 9.375 36.1559 9.72727C36.1559 10.0795 36.2028 10.3864 36.2965 10.6477C36.3903 10.9091 36.5252 11.1122 36.7013 11.2571C36.8803 11.3991 37.0991 11.4702 37.3576 11.4702ZM44.9737 13.1236C44.2862 13.1236 43.6953 12.983 43.201 12.7017C42.7095 12.4176 42.3303 12.0227 42.0632 11.517C41.799 11.0085 41.6669 10.419 41.6669 9.74858C41.6669 9.07528 41.799 8.4858 42.0632 7.98011C42.3303 7.47159 42.7095 7.0767 43.201 6.79545C43.6953 6.51136 44.2862 6.36932 44.9737 6.36932C45.6612 6.36932 46.2507 6.51136 46.7422 6.79545C47.2365 7.0767 47.6158 7.47159 47.88 7.98011C48.147 8.4858 48.2805 9.07528 48.2805 9.74858C48.2805 10.419 48.147 11.0085 47.88 11.517C47.6158 12.0227 47.2365 12.4176 46.7422 12.7017C46.2507 12.983 45.6612 13.1236 44.9737 13.1236ZM44.9865 11.5511C45.2365 11.5511 45.4482 11.4744 45.6214 11.321C45.7947 11.1676 45.9268 10.9545 46.0178 10.6818C46.1115 10.4091 46.1584 10.0937 46.1584 9.7358C46.1584 9.37216 46.1115 9.05398 46.0178 8.78125C45.9268 8.50852 45.7947 8.29545 45.6214 8.14205C45.4482 7.98864 45.2365 7.91193 44.9865 7.91193C44.728 7.91193 44.5092 7.98864 44.3303 8.14205C44.1541 8.29545 44.0192 8.50852 43.9254 8.78125C43.8345 9.05398 43.7891 9.37216 43.7891 9.7358C43.7891 10.0937 43.8345 10.4091 43.9254 10.6818C44.0192 10.9545 44.1541 11.1676 44.3303 11.321C44.5092 11.4744 44.728 11.5511 44.9865 11.5511ZM49.348 13V6.45455H51.3295V7.65625H51.402C51.5384 7.25852 51.7685 6.9446 52.0923 6.71449C52.4162 6.48438 52.8026 6.36932 53.2514 6.36932C53.706 6.36932 54.0952 6.4858 54.419 6.71875C54.7429 6.9517 54.9489 7.2642 55.0369 7.65625H55.1051C55.2273 7.26705 55.4659 6.95597 55.821 6.72301C56.1761 6.48722 56.5952 6.36932 57.0781 6.36932C57.6974 6.36932 58.2003 6.56818 58.5866 6.96591C58.973 7.3608 59.1662 7.90341 59.1662 8.59375V13H57.0824V9.07102C57.0824 8.74432 56.9986 8.49574 56.831 8.32528C56.6634 8.15199 56.446 8.06534 56.179 8.06534C55.892 8.06534 55.6662 8.15909 55.5014 8.34659C55.3395 8.53125 55.2585 8.77983 55.2585 9.09233V13H53.2557V9.04972C53.2557 8.74574 53.1733 8.50568 53.0085 8.32955C52.8438 8.15341 52.6264 8.06534 52.3565 8.06534C52.1747 8.06534 52.0142 8.10937 51.875 8.19744C51.7358 8.28267 51.6264 8.40483 51.5469 8.56392C51.4702 8.72301 51.4318 8.91051 51.4318 9.12642V13H49.348ZM70.5483 7C70.483 6.70455 70.3722 6.41903 70.2159 6.14347C70.0597 5.86506 69.8594 5.61506 69.6151 5.39347C69.3736 5.16903 69.0895 4.99148 68.7628 4.8608C68.4389 4.73011 68.0753 4.66477 67.6719 4.66477C67.0554 4.66477 66.5085 4.8267 66.0312 5.15057C65.5568 5.47159 65.1847 5.9304 64.9148 6.52699C64.6477 7.12074 64.5142 7.82386 64.5142 8.63636C64.5142 9.44034 64.6477 10.1406 64.9148 10.7372C65.1818 11.3338 65.5554 11.7955 66.0355 12.1222C66.5185 12.446 67.0795 12.608 67.7188 12.608C68.2898 12.608 68.7955 12.4759 69.2358 12.2116C69.679 11.9474 70.0241 11.5696 70.2713 11.0781C70.5185 10.5866 70.6392 9.99858 70.6335 9.31392L70.821 9.40341H67.8551V8.90909H71.1534V9.40341C71.1534 10.1733 71.0057 10.8366 70.7102 11.3935C70.4176 11.9474 70.0114 12.3736 69.4915 12.6719C68.9744 12.9702 68.3835 13.1193 67.7188 13.1193C66.9688 13.1193 66.3139 12.9332 65.7543 12.5611C65.1946 12.1889 64.7599 11.6676 64.4503 10.9972C64.1435 10.3239 63.9901 9.53693 63.9901 8.63636C63.9901 7.96023 64.0781 7.34659 64.2543 6.79545C64.4304 6.24432 64.6818 5.77273 65.0085 5.38068C65.3352 4.9858 65.7244 4.68324 66.1761 4.47301C66.6278 4.25994 67.1264 4.15341 67.6719 4.15341C68.1662 4.15341 68.6108 4.2358 69.0057 4.40057C69.4006 4.5625 69.7415 4.78125 70.0284 5.05682C70.3182 5.32955 70.5526 5.63494 70.7315 5.97301C70.9105 6.30824 71.0312 6.65057 71.0938 7H70.5483ZM74.8672 13.1406C74.4893 13.1406 74.1428 13.0653 73.8274 12.9148C73.5149 12.7642 73.2635 12.544 73.0732 12.2543C72.8857 11.9645 72.7919 11.6122 72.7919 11.1974C72.7919 10.9247 72.8402 10.6847 72.9368 10.4773C73.0334 10.2699 73.1825 10.0909 73.3842 9.94034C73.5859 9.78977 73.8445 9.66619 74.1598 9.5696C74.4751 9.47017 74.8516 9.39347 75.2891 9.33949C75.6214 9.29972 75.9183 9.26136 76.1797 9.22443C76.4411 9.18466 76.6456 9.12358 76.7933 9.04119C76.9439 8.95881 77.0192 8.83381 77.0192 8.66619V8.39347C77.0192 7.91619 76.8686 7.53693 76.5675 7.25568C76.2663 6.97443 75.8516 6.83381 75.3232 6.83381C74.8544 6.83381 74.4595 6.9375 74.1385 7.14489C73.8203 7.34943 73.5973 7.61364 73.4695 7.9375L72.9794 7.75426C73.1044 7.44176 73.2848 7.18182 73.5206 6.97443C73.7592 6.76705 74.032 6.61222 74.3388 6.50994C74.6484 6.40767 74.9723 6.35653 75.3104 6.35653C75.603 6.35653 75.8814 6.39773 76.1456 6.48011C76.4126 6.5625 76.6499 6.6875 76.8572 6.85511C77.0675 7.02273 77.2337 7.23722 77.3558 7.49858C77.478 7.7571 77.5391 8.06676 77.5391 8.42756V13H77.0192V11.8196H76.9808C76.8672 12.0639 76.7109 12.2869 76.5121 12.4886C76.3161 12.6875 76.0788 12.8466 75.8004 12.9659C75.5249 13.0824 75.2138 13.1406 74.8672 13.1406ZM74.9183 12.6591C75.3274 12.6591 75.6896 12.5597 76.005 12.3608C76.3232 12.1591 76.5717 11.8835 76.7507 11.5341C76.9297 11.1847 77.0192 10.7884 77.0192 10.3452V9.3821C76.9538 9.43892 76.8587 9.49006 76.7337 9.53551C76.6115 9.57812 76.4723 9.61648 76.3161 9.65057C76.1626 9.68182 76.0007 9.71023 75.8303 9.7358C75.6626 9.75852 75.4993 9.77983 75.3402 9.79972C74.8629 9.85653 74.4737 9.9446 74.1726 10.0639C73.8743 10.1804 73.6555 10.3338 73.5163 10.5241C73.38 10.7145 73.3118 10.9446 73.3118 11.2145C73.3118 11.6605 73.4652 12.0128 73.772 12.2713C74.0788 12.5298 74.4609 12.6591 74.9183 12.6591ZM80.2386 4.27273V13H79.7188V4.27273H80.2386ZM82.9105 4.27273V13H82.3906V4.27273H82.9105ZM86.7969 13.1406C86.419 13.1406 86.0724 13.0653 85.7571 12.9148C85.4446 12.7642 85.1932 12.544 85.0028 12.2543C84.8153 11.9645 84.7216 11.6122 84.7216 11.1974C84.7216 10.9247 84.7699 10.6847 84.8665 10.4773C84.9631 10.2699 85.1122 10.0909 85.3139 9.94034C85.5156 9.78977 85.7741 9.66619 86.0895 9.5696C86.4048 9.47017 86.7812 9.39347 87.2188 9.33949C87.5511 9.29972 87.848 9.26136 88.1094 9.22443C88.3707 9.18466 88.5753 9.12358 88.723 9.04119C88.8736 8.95881 88.9489 8.83381 88.9489 8.66619V8.39347C88.9489 7.91619 88.7983 7.53693 88.4972 7.25568C88.196 6.97443 87.7813 6.83381 87.2528 6.83381C86.7841 6.83381 86.3892 6.9375 86.0682 7.14489C85.75 7.34943 85.527 7.61364 85.3991 7.9375L84.9091 7.75426C85.0341 7.44176 85.2145 7.18182 85.4503 6.97443C85.6889 6.76705 85.9616 6.61222 86.2685 6.50994C86.5781 6.40767 86.902 6.35653 87.2401 6.35653C87.5327 6.35653 87.8111 6.39773 88.0753 6.48011C88.3423 6.5625 88.5795 6.6875 88.7869 6.85511C88.9972 7.02273 89.1634 7.23722 89.2855 7.49858C89.4077 7.7571 89.4688 8.06676 89.4688 8.42756V13H88.9489V11.8196H88.9105C88.7969 12.0639 88.6406 12.2869 88.4418 12.4886C88.2457 12.6875 88.0085 12.8466 87.7301 12.9659C87.4545 13.0824 87.1435 13.1406 86.7969 13.1406ZM86.848 12.6591C87.2571 12.6591 87.6193 12.5597 87.9347 12.3608C88.2528 12.1591 88.5014 11.8835 88.6804 11.5341C88.8594 11.1847 88.9489 10.7884 88.9489 10.3452V9.3821C88.8835 9.43892 88.7884 9.49006 88.6634 9.53551C88.5412 9.57812 88.402 9.61648 88.2457 9.65057C88.0923 9.68182 87.9304 9.71023 87.7599 9.7358C87.5923 9.75852 87.429 9.77983 87.2699 9.79972C86.7926 9.85653 86.4034 9.9446 86.1023 10.0639C85.804 10.1804 85.5852 10.3338 85.446 10.5241C85.3097 10.7145 85.2415 10.9446 85.2415 11.2145C85.2415 11.6605 85.3949 12.0128 85.7017 12.2713C86.0085 12.5298 86.3906 12.6591 86.848 12.6591ZM91.6484 13V6.45455H92.1555V7.47727H92.2024C92.3445 7.14205 92.5845 6.87358 92.9226 6.67188C93.2607 6.46733 93.6456 6.36506 94.0774 6.36506C94.1229 6.36506 94.1683 6.36506 94.2138 6.36506C94.2592 6.36506 94.3018 6.36648 94.3416 6.36932V6.89347C94.3075 6.89062 94.2663 6.88636 94.218 6.88068C94.1726 6.87216 94.1158 6.8679 94.0476 6.8679C93.6839 6.8679 93.3601 6.94602 93.076 7.10227C92.7947 7.25852 92.5732 7.47443 92.4112 7.75C92.2493 8.02273 92.1683 8.33523 92.1683 8.6875V13H91.6484ZM96.3551 15.4545C96.2244 15.4545 96.0952 15.4403 95.9673 15.4119C95.8395 15.3835 95.7244 15.3466 95.6222 15.3011L95.7756 14.8452C96.0426 14.9474 96.2841 14.9844 96.5 14.956C96.7188 14.9276 96.9119 14.8281 97.0795 14.6577C97.2472 14.4872 97.3892 14.2372 97.5057 13.9077L97.804 13.0895L95.4048 6.45455H95.9631L98.0426 12.331H98.0852L100.165 6.45455H100.723L97.9616 14.1122C97.8565 14.4077 97.7244 14.6548 97.5653 14.8537C97.4063 15.0526 97.2244 15.2017 97.0199 15.3011C96.8182 15.4034 96.5966 15.4545 96.3551 15.4545Z" fill="white"/>
<path d="M4.29535 8.61537C5.82476 8.61537 7.06458 7.37554 7.06458 5.84613C7.06458 4.31673 5.82476 3.0769 4.29535 3.0769C2.76595 3.0769 1.52612 4.31673 1.52612 5.84613C1.52612 7.37554 2.76595 8.61537 4.29535 8.61537Z" stroke="#B9C0FF" stroke-linecap="round" stroke-linejoin="round"/>
<path d="M4.29541 10.6923V13" stroke="#B9C0FF" stroke-linecap="round" stroke-linejoin="round"/>
<path d="M2.91077 13H5.68" stroke="#B9C0FF" stroke-linecap="round" stroke-linejoin="round"/>
<path d="M4.29538 1C5.08456 1.0001 5.86177 1.19293 6.55947 1.56174C7.25718 1.93054 7.85425 2.46415 8.29882 3.1162C8.74338 3.76824 9.02198 4.51899 9.11039 5.3032C9.19881 6.08741 9.09437 6.88135 8.80616 7.61601C8.51794 8.35068 8.05467 9.00384 7.45661 9.51874C6.85854 10.0336 6.14378 10.3947 5.37443 10.5705C4.60509 10.7463 3.80445 10.7316 3.04209 10.5276C2.27974 10.3236 1.57873 9.93654 1 9.4" stroke="#B9C0FF" stroke-linecap="round" stroke-linejoin="round"/>
</svg>
